<svg width="589" height="629" viewBox="0 0 589 629" fill="none" xmlns="http://www.w3.org/2000/svg">
<rect width="589" height="629" fill="black"/>
<path d="M382.25 442L306.256 132.25H458.244L382.25 442Z" fill="#D9D9D9"/>
<path d="M382.25 442L306.256 132.25H458.244L382.25 442Z" fill="white"/>
<path d="M206.75 442L130.756 132.25H282.744L206.75 442Z" fill="#D9D9D9"/>
<path d="M206.75 442L130.756 132.25H282.744L206.75 442Z" fill="#FFF6F6"/>
<rect x="206.75" y="132.25" width="175.5" height="309.75" fill="#D9D9D9"/>
<path d="M206.75 132.25H382.25V442H206.75V132.25Z" fill="#FFFDFD"/>
<path d="M345.007 390L301.127 111.75H388.888L345.007 390Z" fill="#020202"/>
<path d="M345.007 390L301.127 111.75H388.888L345.007 390Z" fill="#020202"/>
<path d="M243.669 390L199.788 111.75H287.55L243.669 390Z" fill="#020202"/>
<path d="M243.669 390L199.788 111.75H287.55L243.669 390Z" fill="#020202"/>
<rect x="243.669" y="111.75" width="101.338" height="278.25" fill="#020202"/>
<rect x="243.669" y="111.75" width="101.338" height="278.25" fill="#020202"/>
<path d="M294.5 91L328.708 321.25H260.292L294.5 91Z" fill="#FF0000"/>
<ellipse cx="294.5" cy="325.5" rx="34.5" ry="38.5" fill="#FF0000"/>
<path d="M176.548 504.432C176.092 504.408 175.564 504.336 174.964 504.216C174.388 504.096 173.728 503.94 172.984 503.748C172.576 503.628 172.156 503.52 171.724 503.424C171.316 503.304 170.896 503.184 170.464 503.064C169.648 502.848 169.132 502.764 168.916 502.812V497.016H171.4C171.496 497.64 171.82 498.18 172.372 498.636C173.62 499.668 175.264 500.184 177.304 500.184C178.864 500.184 179.812 499.548 180.148 498.276C180.196 498.084 180.22 497.928 180.22 497.808C180.22 497.184 179.872 496.56 179.176 495.936C178.672 495.48 178.096 495.12 177.448 494.856C175.96 494.28 174.76 493.8 173.848 493.416C172.96 493.008 172.348 492.708 172.012 492.516C170.308 491.412 169.444 489.936 169.42 488.088C169.372 485.736 170.176 483.96 171.832 482.76C173.2 481.728 175.06 481.188 177.412 481.14C177.676 481.116 177.964 481.128 178.276 481.176C178.588 481.224 178.948 481.296 179.356 481.392C179.692 481.488 180.016 481.572 180.328 481.644C180.64 481.716 180.952 481.788 181.264 481.86C182.488 482.124 183.256 482.22 183.568 482.148V487.62H181.156C181.036 486.924 180.832 486.456 180.544 486.216C180.28 485.976 180.028 485.748 179.788 485.532C179.356 485.244 178.732 485.076 177.916 485.028C175.9 484.932 174.616 485.412 174.064 486.468C173.896 486.804 173.812 487.152 173.812 487.512C173.812 488.88 175 489.864 177.376 490.464C179.608 490.992 181.396 491.88 182.74 493.128C184.276 494.448 185.044 496.032 185.044 497.88C185.044 500.088 184.144 501.78 182.344 502.956C180.736 504.036 178.804 504.528 176.548 504.432ZM209.762 504H204.434C204.602 503.4 204.71 502.344 204.758 500.832C204.83 499.296 204.854 497.28 204.83 494.784H193.958C193.958 499.872 194.09 502.944 194.354 504H189.026C189.29 503.088 189.434 501.552 189.458 499.392C189.458 494.952 189.458 491.508 189.458 489.06C189.458 486.612 189.446 485.112 189.422 484.56C189.398 484.008 189.35 483.492 189.278 483.012C189.23 482.508 189.146 482.028 189.026 481.572H194.354C193.994 483.036 193.85 486.072 193.922 490.68H204.83C204.854 488.208 204.83 486.216 204.758 484.704C204.71 483.168 204.602 482.124 204.434 481.572H209.726C209.606 482.028 209.51 482.64 209.438 483.408C209.39 484.152 209.354 485.076 209.33 486.18V492.84C209.33 499.176 209.474 502.896 209.762 504ZM231.415 504H226.087C226.135 503.76 226.159 503.58 226.159 503.46C226.159 502.116 225.691 500.652 224.755 499.068C223.675 497.22 222.319 496.02 220.687 495.468C220.063 495.276 219.331 495.168 218.491 495.144C218.323 495.168 218.155 495.18 217.987 495.18C217.819 495.18 217.639 495.192 217.447 495.216V500.616C217.471 501.312 217.507 501.936 217.555 502.488C217.627 503.04 217.723 503.544 217.843 504H212.551C212.671 503.544 212.755 502.956 212.803 502.236C212.875 501.492 212.923 500.58 212.947 499.5V492.876V486.252C212.923 485.124 212.875 484.176 212.803 483.408C212.755 482.64 212.671 482.028 212.551 481.572H222.559C224.071 481.572 225.499 481.92 226.843 482.616C228.835 483.672 229.879 485.304 229.975 487.512C230.047 489.576 229.531 491.16 228.427 492.264C227.443 493.248 226.243 493.74 224.827 493.74C227.995 494.508 230.191 497.928 231.415 504ZM225.223 488.304C225.223 487.032 224.815 486.168 223.999 485.712C223.447 485.4 222.475 485.244 221.083 485.244H217.519V491.688L221.047 491.652C222.223 491.652 223.015 491.568 223.423 491.4C224.623 490.92 225.223 489.888 225.223 488.304ZM239.819 481.572C239.699 482.028 239.603 482.64 239.531 483.408C239.483 484.152 239.447 485.064 239.423 486.144V492.768V499.32C239.471 501.6 239.591 503.16 239.783 504H234.491C234.731 503.112 234.875 501.564 234.923 499.356V492.696C234.923 490.512 234.923 488.748 234.923 487.404C234.923 486.036 234.911 485.076 234.887 484.524C234.863 483.972 234.815 483.456 234.743 482.976C234.695 482.496 234.611 482.028 234.491 481.572H239.819ZM284.337 481.572C283.977 482.244 283.737 483.744 283.617 486.072C283.593 486.528 283.569 487.32 283.545 488.448C283.545 489.576 283.545 491.052 283.545 492.876V499.464C283.569 500.544 283.605 501.456 283.653 502.2C283.725 502.944 283.821 503.544 283.941 504H278.685C278.805 503.544 278.889 502.944 278.937 502.2C279.009 501.432 279.057 500.508 279.081 499.428V492.948V488.34C278.385 489.348 277.341 490.872 275.949 492.912C274.557 494.952 272.781 497.544 270.621 500.688L262.197 488.34V492.948V499.428C262.221 500.532 262.257 501.468 262.305 502.236C262.377 502.98 262.473 503.568 262.593 504H257.301C257.421 503.544 257.505 502.944 257.553 502.2C257.625 501.456 257.673 500.544 257.697 499.464V492.876C257.697 491.052 257.697 489.576 257.697 488.448C257.697 487.32 257.685 486.528 257.661 486.072C257.541 483.744 257.301 482.244 256.941 481.572H262.845L270.657 492.876L278.469 481.572H284.337ZM307.815 504H302.595C301.203 500.112 300.507 498.168 300.507 498.168H293.451C293.139 498.936 292.803 499.812 292.443 500.796C292.107 501.756 291.735 502.824 291.327 504H286.467C286.995 502.824 287.967 500.352 289.383 496.584C290.799 492.792 292.695 487.668 295.071 481.212H299.139C299.883 483.252 300.579 485.16 301.227 486.936C301.899 488.688 302.511 490.32 303.063 491.832C305.775 499.104 307.359 503.16 307.815 504ZM299.319 493.848C298.959 492.816 298.599 491.796 298.239 490.788C297.879 489.78 297.519 488.772 297.159 487.764C295.671 491.916 294.915 493.944 294.891 493.848H299.319ZM331.171 493.128C331.171 496.272 330.139 498.876 328.075 500.94C326.035 502.98 323.107 504 319.291 504H310.507C310.675 503.352 310.783 502.452 310.831 501.3C310.903 500.148 310.939 497.304 310.939 492.768C310.939 490.44 310.927 488.484 310.903 486.9C310.879 485.316 310.843 484.104 310.795 483.264C310.771 482.544 310.699 481.98 310.579 481.572H319.615C321.415 481.572 323.119 481.884 324.727 482.508C326.335 483.108 327.607 483.948 328.543 485.028C330.295 487.02 331.171 489.72 331.171 493.128ZM326.203 493.092C326.203 490.62 325.507 488.652 324.115 487.188C322.987 486.036 321.415 485.46 319.399 485.46H315.547C315.547 485.724 315.547 486.168 315.547 486.792C315.547 487.392 315.535 488.172 315.511 489.132C315.487 489.9 315.475 490.584 315.475 491.184C315.475 491.784 315.475 492.312 315.475 492.768C315.475 493.872 315.475 495.048 315.475 496.296C315.499 497.52 315.523 498.84 315.547 500.256H319.255C321.367 500.256 323.047 499.596 324.295 498.276C325.567 496.932 326.203 495.204 326.203 493.092ZM354.676 504H349.348C349.516 503.4 349.624 502.344 349.672 500.832C349.744 499.296 349.768 497.28 349.744 494.784H338.872C338.872 499.872 339.004 502.944 339.268 504H333.94C334.204 503.088 334.348 501.552 334.372 499.392C334.372 494.952 334.372 491.508 334.372 489.06C334.372 486.612 334.36 485.112 334.336 484.56C334.312 484.008 334.264 483.492 334.192 483.012C334.144 482.508 334.06 482.028 333.94 481.572H339.268C338.908 483.036 338.764 486.072 338.836 490.68H349.744C349.768 488.208 349.744 486.216 349.672 484.704C349.624 483.168 349.516 482.124 349.348 481.572H354.64C354.52 482.028 354.424 482.64 354.352 483.408C354.304 484.152 354.268 485.076 354.244 486.18V492.84C354.244 499.176 354.388 502.896 354.676 504ZM378.093 504H372.873C371.481 500.112 370.785 498.168 370.785 498.168H363.729C363.417 498.936 363.081 499.812 362.721 500.796C362.385 501.756 362.013 502.824 361.605 504H356.745C357.273 502.824 358.245 500.352 359.661 496.584C361.077 492.792 362.973 487.668 365.349 481.212H369.417C370.161 483.252 370.857 485.16 371.505 486.936C372.177 488.688 372.789 490.32 373.341 491.832C376.053 499.104 377.637 503.16 378.093 504ZM369.597 493.848C369.237 492.816 368.877 491.796 368.517 490.788C368.157 489.78 367.797 488.772 367.437 487.764C365.949 491.916 365.193 493.944 365.169 493.848H369.597ZM400.872 481.572C400.152 482.868 397.248 490.344 392.16 504H387.84C386.736 500.856 385.488 497.436 384.096 493.74C382.728 490.02 381.204 485.964 379.524 481.572H384.384C384.576 482.46 386.52 487.848 390.216 497.736L395.652 481.572H400.872Z" fill="white"/>
</svg>
