<svg width="409" height="460" viewBox="0 0 409 460" fill="none" xmlns="http://www.w3.org/2000/svg">
<ellipse cx="66.7633" cy="180.478" rx="57.1397" ry="58.5814" fill="#8F8F8F"/>
<ellipse cx="67.3647" cy="180.478" rx="37.2912" ry="37.2791" fill="black"/>
<rect x="52.9294" y="113.612" width="28.8706" height="29.5866" fill="#8F8F8F"/>
<rect width="28.6105" height="29.8595" transform="matrix(0.67055 0.741864 -0.752638 0.658435 107.882 117.163)" fill="#8F8F8F"/>
<rect width="28.4033" height="30.0733" transform="matrix(0.0205564 0.999789 -0.999802 0.0198963 138.332 164.501)" fill="#8F8F8F"/>
<rect width="28.6401" height="29.8286" transform="matrix(-0.716297 0.697795 -0.709394 -0.704812 125.881 218.662)" fill="#8F8F8F"/>
<rect width="28.8702" height="29.587" transform="matrix(-0.999562 -0.0295787 0.0305595 -0.999533 82.9899 250.551)" fill="#8F8F8F"/>
<rect width="28.8702" height="29.587" transform="matrix(-0.999562 -0.0295787 0.0305595 -0.999533 28.8575 193.745)" fill="#8F8F8F"/>
<rect width="28.6498" height="29.8186" transform="matrix(0.730579 -0.682828 0.694647 0.71935 7.21768 141.46)" fill="#8F8F8F"/>
<rect width="28.6395" height="29.8293" transform="matrix(-0.715393 -0.698723 0.710307 -0.703892 25.3003 237.462)" fill="#8F8F8F"/>
<ellipse cx="98.0397" cy="66.8656" rx="57.1397" ry="58.5814" fill="#DADADA"/>
<ellipse cx="98.6412" cy="66.8656" rx="37.2912" ry="37.2791" fill="black"/>
<rect x="84.2059" width="28.8706" height="29.5866" fill="#DADADA"/>
<path d="M143.751 8.63166L162.936 29.8568L140.463 49.5173L121.278 28.2922L143.751 8.63166Z" fill="#DADADA"/>
<rect width="28.4033" height="30.0733" transform="matrix(0.0205564 0.999789 -0.999802 0.0198963 169.609 50.8889)" fill="#DADADA"/>
<rect width="28.6401" height="29.8286" transform="matrix(-0.716297 0.697795 -0.709394 -0.704812 157.157 105.049)" fill="#DADADA"/>
<rect width="28.8702" height="29.587" transform="matrix(-0.999562 -0.0295787 0.0305595 -0.999533 114.266 136.939)" fill="#DADADA"/>
<rect width="28.8702" height="29.587" transform="matrix(-0.999562 -0.0295787 0.0305595 -0.999533 60.134 80.1326)" fill="#DADADA"/>
<rect width="28.6498" height="29.8186" transform="matrix(0.730579 -0.682828 0.694647 0.71935 38.4941 27.8471)" fill="#DADADA"/>
<rect width="28.6395" height="29.8293" transform="matrix(-0.715393 -0.698723 0.710307 -0.703892 56.5768 123.85)" fill="#DADADA"/>
<ellipse cx="276.075" cy="340.245" rx="57.1397" ry="58.5814" fill="#DADADA"/>
<ellipse cx="276.677" cy="340.245" rx="37.2912" ry="37.2791" fill="black"/>
<rect x="262.241" y="273.38" width="28.8706" height="29.5866" fill="#DADADA"/>
<path d="M321.787 282.012L340.972 303.237L318.498 322.897L299.313 301.672L321.787 282.012Z" fill="#DADADA"/>
<rect width="28.4033" height="30.0733" transform="matrix(0.0205564 0.999789 -0.999802 0.0198963 347.644 324.269)" fill="#DADADA"/>
<rect width="28.6401" height="29.8286" transform="matrix(-0.716297 0.697795 -0.709394 -0.704812 335.193 378.429)" fill="#DADADA"/>
<rect width="28.8702" height="29.587" transform="matrix(-0.999562 -0.0295787 0.0305595 -0.999533 292.302 410.319)" fill="#DADADA"/>
<rect width="28.8702" height="29.587" transform="matrix(-0.999562 -0.0295787 0.0305595 -0.999533 238.169 353.512)" fill="#DADADA"/>
<rect width="28.6498" height="29.8186" transform="matrix(0.730579 -0.682828 0.694647 0.71935 216.529 301.227)" fill="#DADADA"/>
<rect width="28.6395" height="29.8293" transform="matrix(-0.715393 -0.698723 0.710307 -0.703892 234.612 397.23)" fill="#DADADA"/>
<ellipse cx="90.5264" cy="120.482" rx="44.5321" ry="45.4182" fill="#414141"/>
<ellipse cx="90.9951" cy="120.482" rx="29.063" ry="28.9025" fill="black"/>
<rect x="79.745" y="68.6408" width="22.5004" height="22.9385" fill="#414141"/>
<rect width="22.2339" height="23.2187" transform="matrix(0.672473 0.740122 -0.754336 0.656489 122.573 71.3934)" fill="#414141"/>
<rect width="22.0211" height="23.4377" transform="matrix(0.0206638 0.999786 -0.999804 0.0197929 146.304 108.095)" fill="#414141"/>
<rect width="22.2643" height="23.1871" transform="matrix(-0.718114 0.695926 -0.711229 -0.70296 136.6 150.086)" fill="#414141"/>
<rect width="22.5" height="22.9389" transform="matrix(-0.999567 -0.029425 0.0307191 -0.999528 103.173 174.81)" fill="#414141"/>
<rect width="22.5" height="22.9389" transform="matrix(-0.999567 -0.029425 0.0307191 -0.999528 60.9844 130.768)" fill="#414141"/>
<rect width="22.2743" height="23.1768" transform="matrix(0.732353 -0.680926 0.69652 0.717538 44.1192 90.2307)" fill="#414141"/>
<rect width="22.2637" height="23.1877" transform="matrix(-0.717211 -0.696856 0.71214 -0.702038 58.212 164.662)" fill="#414141"/>
<ellipse cx="359.64" cy="284.133" rx="39.0893" ry="39.4896" fill="#414141"/>
<ellipse cx="360.052" cy="284.133" rx="25.5109" ry="25.1297" fill="black"/>
<rect x="350.177" y="239.059" width="19.7504" height="19.9442" fill="#414141"/>
<rect width="19.4154" height="20.2979" transform="matrix(0.675972 0.736928 -0.757419 0.652929 387.77 241.453)" fill="#414141"/>
<rect width="19.1467" height="20.573" transform="matrix(0.0208613 0.999782 -0.999808 0.0196055 408.601 273.364)" fill="#414141"/>
<rect width="19.4537" height="20.2581" transform="matrix(-0.721414 0.692504 -0.714565 -0.699569 400.083 309.873)" fill="#414141"/>
<rect width="19.7498" height="19.9448" transform="matrix(-0.999575 -0.0291466 0.0310125 -0.999519 370.741 331.37)" fill="#414141"/>
<rect width="19.7498" height="19.9448" transform="matrix(-0.999575 -0.0291466 0.0310125 -0.999519 333.709 293.077)" fill="#414141"/>
<rect width="19.4662" height="20.2451" transform="matrix(0.735574 -0.677445 0.699924 0.714217 318.905 257.831)" fill="#414141"/>
<rect width="19.4529" height="20.2589" transform="matrix(-0.720517 -0.693438 0.715471 -0.698643 331.276 322.546)" fill="#414141"/>
<ellipse cx="210.39" cy="225.796" rx="149.61" ry="145.796" fill="#D9D9D9"/>
<ellipse cx="214" cy="225.5" rx="118" ry="116.5" fill="black"/>
<rect width="141.431" height="47.9161" transform="matrix(0.619844 -0.784725 0.806906 0.590681 15 431.376)" fill="#D9D9D9"/>
</svg>
