<svg width="636" height="514" viewBox="0 0 636 514" fill="none" xmlns="http://www.w3.org/2000/svg">
<rect width="636" height="514" fill="#404040"/>
<rect width="636" height="514" fill="black"/>
<rect x="192.958" y="130.599" width="240" height="217" transform="rotate(-5.05004 192.958 130.599)" fill="#D9D9D9"/>
<path d="M216.465 345.5L98.5408 137.416L297.885 120.61L216.465 345.5Z" fill="#D9D9D9"/>
<path d="M452.461 326.18L363.817 115.728L492.063 101.281L452.461 326.18Z" fill="#D9D9D9"/>
<rect x="191.081" y="336.563" width="276" height="32" rx="16" transform="rotate(-5.05004 191.081 336.563)" fill="#D9D9D9"/>
<rect x="182.945" y="403.539" width="288" height="23" rx="11.5" transform="rotate(-5.05004 182.945 403.539)" fill="#D9D9D9"/>
<rect x="113.407" y="115.336" width="268.712" height="32" rx="16" transform="rotate(64.2826 113.407 115.336)" fill="#D9D9D9"/>
<rect x="93.58" y="130.69" width="414.818" height="32" rx="16" transform="rotate(-5.0975 93.58 130.69)" fill="#D9D9D9"/>
<rect x="419.26" y="339.895" width="337.546" height="24.0855" rx="12.0428" transform="rotate(-73.2487 419.26 339.895)" fill="#D9D9D9"/>
<rect x="453.414" y="402.329" width="87.7724" height="23.7644" rx="11.8822" transform="rotate(-97.2021 453.414 402.329)" fill="#D9D9D9"/>
<rect x="570.537" y="22.2712" width="55.8912" height="23.7644" rx="11.8822" transform="rotate(154.94 570.537 22.2712)" fill="#D9D9D9"/>
<ellipse cx="184.471" cy="426.494" rx="43.5" ry="45" transform="rotate(-5.05004 184.471 426.494)" fill="#D9D9D9"/>
<ellipse cx="454.845" cy="413.142" rx="54" ry="55.5" transform="rotate(-5.05004 454.845 413.142)" fill="#D9D9D9"/>
<rect x="151.704" y="153.709" width="40.8895" height="36.8168" transform="rotate(-5.05004 151.704 153.709)" fill="black"/>
<path d="M155.081 190.282L137.218 155.076L165.927 152.328L155.081 190.282Z" fill="black"/>
<rect x="412.813" y="130.635" width="29.0791" height="36.8168" transform="rotate(-5.05004 412.813 130.635)" fill="black"/>
<path d="M445.22 164.822L435.117 128.767L448.441 127.452L445.22 164.822Z" fill="black"/>
<rect x="371.227" y="284.84" width="40.8895" height="36.8168" transform="rotate(-5.05004 371.227 284.84)" fill="black"/>
<path d="M415.477 317.981L402.586 282.173L421.326 280.379L415.477 317.981Z" fill="black"/>
<rect x="299.383" y="291.243" width="40.8895" height="36.8168" transform="rotate(-5.05004 299.383 291.243)" fill="black"/>
<path d="M302.761 327.816L284.898 292.61L313.607 289.862L302.761 327.816Z" fill="black"/>
<rect x="338.726" y="212.42" width="40.8895" height="36.8168" transform="rotate(-5.05004 338.726 212.42)" fill="black"/>
<path d="M382.976 245.561L370.085 209.753L388.825 207.959L382.976 245.561Z" fill="black"/>
<rect x="414.719" y="205.759" width="24.925" height="36.8168" transform="rotate(-5.05004 414.719 205.759)" fill="black"/>
<path d="M442.961 240.314L433.838 204.173L445.257 203.026L442.961 240.314Z" fill="black"/>
<rect x="258.914" y="219.527" width="40.8895" height="36.8168" transform="rotate(-5.05004 258.914 219.527)" fill="black"/>
<path d="M262.291 256.1L244.428 220.894L273.137 218.146L262.291 256.1Z" fill="black"/>
<rect x="332.001" y="137.776" width="40.8895" height="36.8168" transform="rotate(-5.05004 332.001 137.776)" fill="black"/>
<path d="M376.251 170.916L363.36 135.108L382.1 133.315L376.251 170.916Z" fill="black"/>
<rect x="235.378" y="146.314" width="40.8895" height="36.8168" transform="rotate(-5.05004 235.378 146.314)" fill="black"/>
<path d="M238.755 182.888L220.892 147.681L249.601 144.933L238.755 182.888Z" fill="black"/>
<rect x="211.725" y="298.989" width="40.8895" height="36.8168" transform="rotate(-5.05004 211.725 298.989)" fill="black"/>
<path d="M215.103 335.563L197.24 300.356L225.949 297.608L215.103 335.563Z" fill="black"/>
<rect x="175.24" y="226.921" width="40.8895" height="36.8168" transform="rotate(-5.05004 175.24 226.921)" fill="black"/>
<path d="M178.617 263.494L160.754 228.288L189.463 225.54L178.617 263.494Z" fill="black"/>
<ellipse cx="184.735" cy="429.483" rx="26.5" ry="26" transform="rotate(-5.05004 184.735 429.483)" fill="black"/>
<ellipse cx="456.384" cy="413.508" rx="29.5" ry="30" transform="rotate(-5.05004 456.384 413.508)" fill="black"/>
</svg>
